<svg width="13" height="12" viewBox="0 0 13 12" fill="none" xmlns="http://www.w3.org/2000/svg">
<path d="M3.5 10.5146V5.25H4.43333C4.50139 5.25 4.56944 5.25729 4.6375 5.27187C4.70556 5.28646 4.77361 5.30347 4.84167 5.32292L8.88125 6.825C9.01736 6.87361 9.12674 6.96111 9.20938 7.0875C9.29201 7.21389 9.33333 7.34514 9.33333 7.48125C9.33333 7.68542 9.26285 7.85069 9.12187 7.97708C8.9809 8.10347 8.81806 8.16667 8.63333 8.16667H7.10208C7.05347 8.16667 7.01701 8.16424 6.99271 8.15938C6.9684 8.15451 6.93681 8.14236 6.89792 8.12292L5.96458 7.75833L5.775 8.32708L6.89792 8.72083C6.91736 8.73056 6.94653 8.73785 6.98542 8.74271C7.02431 8.74757 7.05833 8.75 7.0875 8.75H11.0833C11.3944 8.75 11.6667 8.86181 11.9 9.08542C12.1333 9.30903 12.25 9.58611 12.25 9.91667L7.59792 11.6667L3.5 10.5146ZM0 11.6667V5.25H2.33333V11.6667H0ZM8.75 6.41667L6.32917 4.05417C6.02778 3.7625 5.77257 3.43924 5.56354 3.08437C5.35451 2.72951 5.25 2.34306 5.25 1.925C5.25 1.39028 5.43715 0.935764 5.81146 0.561458C6.18576 0.187153 6.64028 0 7.175 0C7.48611 0 7.77778 0.065625 8.05 0.196875C8.32222 0.328125 8.55556 0.505556 8.75 0.729167C8.94444 0.505556 9.17778 0.328125 9.45 0.196875C9.72222 0.065625 10.0139 0 10.325 0C10.8597 0 11.3142 0.187153 11.6885 0.561458C12.0628 0.935764 12.25 1.39028 12.25 1.925C12.25 2.34306 12.1479 2.72951 11.9438 3.08437C11.7396 3.43924 11.4868 3.7625 11.1854 4.05417L8.75 6.41667Z" fill="#0D4B8E"/>
</svg>
