<svg width="64" height="64" viewBox="0 0 64 64" fill="none" xmlns="http://www.w3.org/2000/svg">
<rect width="64" height="64" rx="16" fill="#D9A441" fill-opacity="0.05"/>
<path d="M15.425 33.2C14.975 32.3 14.625 31.3875 14.375 30.4625C14.125 29.5375 14 28.6 14 27.65C14 24.85 14.95 22.5 16.85 20.6C18.75 18.7 21.1 17.75 23.9 17.75C25.475 17.75 26.975 18.0812 28.4 18.7437C29.825 19.4062 31.025 20.325 32 21.5C32.975 20.325 34.175 19.4062 35.6 18.7437C37.025 18.0812 38.525 17.75 40.1 17.75C42.9 17.75 45.25 18.7 47.15 20.6C49.05 22.5 50 24.85 50 27.65C50 28.6 49.875 29.5375 49.625 30.4625C49.375 31.3875 49.025 32.3 48.575 33.2C48.3 32.725 47.975 32.3 47.6 31.925C47.225 31.55 46.7875 31.25 46.2875 31.025C46.5125 30.45 46.6875 29.8875 46.8125 29.3375C46.9375 28.7875 47 28.225 47 27.65C47 25.7 46.3375 24.0625 45.0125 22.7375C43.6875 21.4125 42.05 20.75 40.1 20.75C38.075 20.75 36.5187 21.3062 35.4312 22.4187C34.3438 23.5312 33.2 24.775 32 26.15C30.8 24.75 29.6562 23.5 28.5688 22.4C27.4813 21.3 25.925 20.75 23.9 20.75C21.95 20.75 20.3125 21.4125 18.9875 22.7375C17.6625 24.0625 17 25.7 17 27.65C17 28.225 17.0625 28.7875 17.1875 29.3375C17.3125 29.8875 17.4875 30.45 17.7125 31.025C17.2125 31.25 16.775 31.55 16.4 31.925C16.025 32.3 15.7 32.725 15.425 33.2ZM14 46.25V43.8875C14 42.7875 14.5563 41.9062 15.6688 41.2437C16.7812 40.5812 18.225 40.25 20 40.25C20.325 40.25 20.6375 40.2562 20.9375 40.2687C21.2375 40.2812 21.525 40.3125 21.8 40.3625C21.45 40.8625 21.1875 41.4 21.0125 41.975C20.8375 42.55 20.75 43.1625 20.75 43.8125V46.25H14ZM23 46.25V43.8125C23 42.1875 23.8312 40.875 25.4937 39.875C27.1562 38.875 29.325 38.375 32 38.375C34.7 38.375 36.875 38.875 38.525 39.875C40.175 40.875 41 42.1875 41 43.8125V46.25H23ZM43.25 46.25V43.8125C43.25 43.1625 43.1688 42.55 43.0063 41.975C42.8438 41.4 42.6 40.8625 42.275 40.3625C42.55 40.3125 42.8312 40.2812 43.1187 40.2687C43.4062 40.2562 43.7 40.25 44 40.25C45.8 40.25 47.25 40.5812 48.35 41.2437C49.45 41.9062 50 42.7875 50 43.8875V46.25H43.25ZM20 38.75C19.175 38.75 18.4688 38.4562 17.8812 37.8687C17.2937 37.2812 17 36.575 17 35.75C17 34.9 17.2937 34.1875 17.8812 33.6125C18.4688 33.0375 19.175 32.75 20 32.75C20.85 32.75 21.5625 33.0375 22.1375 33.6125C22.7125 34.1875 23 34.9 23 35.75C23 36.575 22.7125 37.2812 22.1375 37.8687C21.5625 38.4562 20.85 38.75 20 38.75ZM44 38.75C43.175 38.75 42.4688 38.4562 41.8813 37.8687C41.2938 37.2812 41 36.575 41 35.75C41 34.9 41.2938 34.1875 41.8813 33.6125C42.4688 33.0375 43.175 32.75 44 32.75C44.85 32.75 45.5625 33.0375 46.1375 33.6125C46.7125 34.1875 47 34.9 47 35.75C47 36.575 46.7125 37.2812 46.1375 37.8687C45.5625 38.4562 44.85 38.75 44 38.75ZM32 37.25C30.75 37.25 29.6875 36.8125 28.8125 35.9375C27.9375 35.0625 27.5 34 27.5 32.75C27.5 31.475 27.9375 30.4062 28.8125 29.5437C29.6875 28.6812 30.75 28.25 32 28.25C33.275 28.25 34.3438 28.6812 35.2062 29.5437C36.0687 30.4062 36.5 31.475 36.5 32.75C36.5 34 36.0687 35.0625 35.2062 35.9375C34.3438 36.8125 33.275 37.25 32 37.25Z" fill="#D9A441"/>
</svg>
